<?xml version="1.0" encoding="iso-8859-1"?>
<!-- Generator: Adobe Illustrator 18.1.1, SVG Export Plug-In . SVG Version: 6.00 Build 0)  -->
<svg version="1.1" id="Capa_1" xmlns="http://www.w3.org/2000/svg" xmlns:xlink="http://www.w3.org/1999/xlink" x="0px" y="0px"
	 viewBox="0 0 47.29 47.29" style="enable-background:new 0 0 47.29 47.29;" xml:space="preserve">
<g>
	<g>
		<path style="fill:#030104;" d="M31.704,32.457c-2.471,0.978-5.129,1.578-7.914,1.578c-2.785,0-5.442-0.601-7.913-1.578
			c-0.61,0.475-0.962,1.01-0.962,1.578c0,1.934,3.973,3.5,8.875,3.5s8.875-1.566,8.875-3.5
			C32.665,33.467,32.315,32.931,31.704,32.457z"/>
		<path style="fill:#030104;" d="M43.288,14.16c0.695,0.421,1.088,0.871,1.088,1.34c0,0.815-1.155,1.572-3.122,2.216
			c2.087,0.493,3.733,0.95,4.774,1.256c0.813-1.359,1.262-2.49,1.262-3.173c0-0.687-0.45-1.346-1.271-1.96
			C45.652,13.892,44.691,14.022,43.288,14.16z"/>
		<path style="fill:#030104;" d="M31.706,20.077c-0.18-0.031-0.364-0.068-0.545-0.1c-0.742-0.131-1.488-0.268-2.248-0.414
			c-1.641,0.086-3.351,0.136-5.122,0.136c-11.369,0-20.585-1.881-20.585-4.201c0-0.278,0.14-0.548,0.392-0.811l-2.469-0.488
			c-0.542,0.509-0.837,1.044-0.837,1.598c0,2.728,7.034,12.513,16.692,15.994c2.156,0.777,4.44,1.244,6.808,1.244
			c2.369,0,4.654-0.467,6.808-1.244c5.889-2.123,10.798-6.584,13.736-10.366c-1.285-0.065-2.988-0.179-4.986-0.378
			C36.738,20.796,34.171,20.47,31.706,20.077z"/>
		<path style="fill:#030104;" d="M23.688,10.606c1.089-0.016,2.175-0.043,3.253-0.07c1.698-0.042,3.301-0.082,4.883-0.082h0.101
			c1.192,0.017,2.409,0.056,3.642,0.116c-3.463-0.517-7.482-0.814-11.775-0.814c-4.968,0-9.573,0.397-13.369,1.074
			c2.533-0.059,5.413-0.102,8.426-0.148C20.438,10.658,22.062,10.634,23.688,10.606z"/>
		<path style="fill:#030104;" d="M45.932,19.986c-0.142-0.042-0.291-0.086-0.457-0.134c-1.252-0.362-3.226-0.898-5.683-1.447
			c-0.188-0.042-0.391-0.086-0.584-0.128c-2.041-0.454-4.367-0.922-6.879-1.33c-2.756-0.413-5.721-0.741-8.669-1.138
			c-1.018-0.135-2.032-0.271-3.042-0.406c-4.845-0.65-9.516-1.287-13.188-1.727c-0.578-0.072-1.13-0.141-1.655-0.207
			c-1.148-0.143-2.156-0.269-2.997-0.374c-0.317-0.04-0.608-0.076-0.875-0.109c-0.259-0.032-0.499-0.062-0.707-0.088
			c-0.742-0.093-1.153-0.144-1.153-0.144L0,12.96c0,0,0.31,0.061,0.873,0.172c0.181,0.036,0.387,0.076,0.619,0.122
			c0.221,0.044,0.467,0.092,0.732,0.145c0.705,0.139,1.559,0.308,2.537,0.501c0.769,0.152,1.609,0.318,2.517,0.497
			c4.362,0.885,10.202,1.954,16.035,3.06c1.237,0.232,2.468,0.476,3.688,0.716c1.658,0.327,3.295,0.647,4.875,0.919
			c0.371,0.059,0.729,0.11,1.093,0.164c2.34,0.35,4.547,0.611,6.478,0.797c2.346,0.234,4.289,0.349,5.61,0.405
			c0.192,0.008,0.373,0.015,0.538,0.021c0.232,0.008,0.436,0.015,0.609,0.019c0.467,0.012,0.726,0.014,0.726,0.014l0.043-0.206
			c0,0-0.185-0.061-0.53-0.166C46.301,20.096,46.128,20.044,45.932,19.986z"/>
		<path style="fill:#030104;" d="M3.105,12.359c0.356,0.018,0.756,0.038,1.205,0.06c1.099,0.055,2.46,0.123,4.016,0.201
			c0.132,0.007,0.277,0.014,0.411,0.021c1.845,0.099,3.939,0.192,6.176,0.285c2.781,0.115,5.771,0.23,8.767,0.356
			c2.792,0.111,5.583,0.292,8.201,0.355c0.368,0.004,0.735,0.006,1.097,0.006c2.204,0,4.262-0.071,6.062-0.17
			c0.838-0.043,1.617-0.095,2.332-0.15c1.352-0.104,2.463-0.22,3.262-0.314c0.363-0.043,0.665-0.081,0.891-0.111
			c0.331-0.044,0.508-0.071,0.508-0.071l0.002-0.163l0.002-0.047c0,0-0.041-0.007-0.109-0.019c-0.199-0.034-0.676-0.113-1.391-0.214
			c-0.568-0.08-1.287-0.174-2.125-0.269c-0.967-0.11-2.094-0.222-3.349-0.318c-2.093-0.167-4.534-0.305-7.153-0.342
			c-0.029,0-0.059,0-0.086,0c-0.697,0-1.41,0.009-2.127,0.021c-1.955,0.034-3.975,0.1-5.995,0.13
			c-3.14,0.053-6.27,0.095-9.162,0.144c-0.767,0.013-1.515,0.027-2.242,0.041c-1.412,0.028-2.751,0.058-3.963,0.095
			c-0.973,0.024-1.866,0.047-2.67,0.067c-0.623,0.016-1.189,0.03-1.693,0.042c-0.48,0.012-0.901,0.023-1.258,0.032
			C1.843,12.048,1.35,12.06,1.35,12.06L1.347,12.27c0,0,0.286,0.014,0.808,0.04C2.413,12.324,2.734,12.34,3.105,12.359z"/>
	</g>
</g>
<g>
</g>
<g>
</g>
<g>
</g>
<g>
</g>
<g>
</g>
<g>
</g>
<g>
</g>
<g>
</g>
<g>
</g>
<g>
</g>
<g>
</g>
<g>
</g>
<g>
</g>
<g>
</g>
<g>
</g>
</svg>
