<svg width="94" height="36" fill="none" xmlns="http://www.w3.org/2000/svg"><path d="M48.95.408h10.53v2.76h-7.687v3.948h7.483v2.68h-7.483v4.003h7.687v2.76H48.949V.408zm39.147 16.456c3.229 0 5.048-1.658 5.048-3.948 0-1.63-1.077-2.843-3.332-3.368l-2.384-.525c-1.383-.275-1.819-.552-1.819-1.105 0-.719.668-1.16 1.897-1.16 1.332 0 2.306.386 2.587 1.713h2.793c-.154-2.485-1.82-4.143-5.203-4.143-2.922 0-4.97 1.297-4.97 3.81 0 1.738 1.128 2.87 3.56 3.423l2.665.663c1.052.223 1.333.525 1.333.994 0 .744-.794 1.216-2.075 1.216-1.613 0-2.535-.385-2.896-1.713h-2.82c.416 2.485 2.132 4.143 5.616 4.143zm-6.365-3.01h-2.1c-.642 0-1.052-.302-1.052-.938V7.338h3.152V4.631H78.58V1.238h-2.82v3.396h-2.126V7.34h2.126v6.347c0 1.601 1.052 2.87 2.948 2.87h3.023v-2.704zm-9.29-9.22V16.56H69.65v-1.077a5.218 5.218 0 0 1-3.535 1.38c-3.306 0-5.894-2.788-5.894-6.267 0-3.478 2.588-6.266 5.894-6.266 1.332 0 2.561.497 3.535 1.38V4.634h2.793zm-2.741 5.963c0-2.043-1.487-3.645-3.358-3.645-1.845 0-3.358 1.602-3.358 3.646 0 2.043 1.513 3.645 3.358 3.645 1.873-.003 3.358-1.602 3.358-3.646z" fill="#06C167"/><path d="M5.93 14.668c2.076 0 3.682-1.73 3.682-4.292V.409h2.25v16.15H9.634v-1.5a5.23 5.23 0 0 1-3.96 1.778C2.46 16.837 0 14.32 0 10.515V.409h2.25v9.967c-.003 2.607 1.582 4.292 3.68 4.292zm7.6 1.89h2.142v-1.476c.985 1.085 2.376 1.755 3.896 1.755 3.211 0 5.74-2.746 5.74-6.136 0-3.415-2.529-6.161-5.74-6.161-1.52 0-2.89.669-3.875 1.755V.409H13.53v16.15zm5.889-1.776c-2.098 0-3.77-1.821-3.77-4.084 0-2.285 1.69-4.084 3.77-4.084 2.056 0 3.747 1.799 3.747 4.084.002 2.263-1.69 4.084-3.747 4.084zm12.356-10.22c-3.19 0-5.61 2.793-5.61 6.114 0 3.506 2.528 6.135 5.803 6.135 1.992 0 3.618-.946 4.71-2.515l-1.563-1.246c-.815 1.177-1.884 1.73-3.15 1.73-1.842 0-3.318-1.43-3.617-3.346h8.887v-.761c0-3.504-2.311-6.11-5.46-6.11zm-3.383 5.03c.386-1.798 1.734-2.998 3.34-2.998 1.605 0 2.955 1.2 3.318 2.999h-6.658zM43.938 6.87V4.701h-.75c-1.199 0-2.077.6-2.613 1.546V4.793h-2.142v11.766h2.162V9.868c0-1.822 1.029-2.999 2.44-2.999h.903z" fill="#F6F0EA"/><path d="M.12 25.818h1.22v-1.1c0-.447.139-.818.418-1.113.287-.295.71-.442 1.267-.442h1.172v1.351H3.3c-.27 0-.406.14-.406.419v.885h1.303v1.35H2.894V32H1.339v-4.831H.12v-1.351zm11.202 3.097a3 3 0 0 1-.275 1.267 3.203 3.203 0 0 1-.73 1.029c-.302.295-.661.53-1.076.705a3.421 3.421 0 0 1-1.315.251c-.47 0-.913-.083-1.327-.25a3.65 3.65 0 0 1-1.077-.706 3.495 3.495 0 0 1-.73-1.029 3.112 3.112 0 0 1-.262-1.267c0-.447.087-.865.263-1.256a3.43 3.43 0 0 1 .73-1.04 3.46 3.46 0 0 1 1.076-.694 3.371 3.371 0 0 1 1.327-.263c.47 0 .909.088 1.315.263a3.29 3.29 0 0 1 1.077.694c.31.287.554.63.729 1.028.183.39.275.813.275 1.268zm-1.555 0c0-.263-.047-.506-.143-.73a1.818 1.818 0 0 0-1.698-1.136c-.255 0-.494.048-.718.144a1.818 1.818 0 0 0-.98.993 1.832 1.832 0 0 0-.144.729c0 .263.048.51.144.741a1.851 1.851 0 0 0 .98.98c.224.096.463.144.718.144.255 0 .494-.048.717-.143a1.852 1.852 0 0 0 .981-.98 1.92 1.92 0 0 0 .143-.742zm5.418-1.722c-.374 0-.69.127-.944.382-.247.256-.371.622-.371 1.1V32h-1.566v-6.182h1.554v.67c.16-.232.359-.411.598-.539a1.88 1.88 0 0 1 .873-.191h.418v1.435h-.562zM19.201 32v-8.37h3.408a2.532 2.532 0 0 1 1.805.729c.231.223.41.486.538.789.136.303.204.63.204.98 0 .51-.144.97-.43 1.376a2.42 2.42 0 0 1-1.1.873L25.705 32h-1.818l-1.901-3.42h-1.172V32H19.2zm1.614-6.96v2.189h1.53c.36 0 .646-.104.861-.311.216-.215.323-.479.323-.79 0-.31-.107-.57-.323-.777-.215-.207-.502-.31-.86-.31h-1.531zm4.992 3.863c0-.43.08-.841.239-1.232a3.27 3.27 0 0 1 1.698-1.734c.39-.175.813-.263 1.267-.263.463 0 .885.084 1.268.251.39.16.726.387 1.005.682.287.287.506.634.657 1.04.16.407.24.85.24 1.328v.454h-4.772c.104.407.31.741.622 1.005.31.255.681.382 1.112.382.335 0 .63-.06.885-.18.263-.127.51-.338.741-.633l1.089.813c-.311.43-.698.762-1.16.993a3.353 3.353 0 0 1-1.543.347c-.47 0-.913-.08-1.327-.24a3.428 3.428 0 0 1-1.065-.681 3.235 3.235 0 0 1-.705-1.029 3.333 3.333 0 0 1-.251-1.303zm3.169-1.89c-.367 0-.69.108-.97.323-.27.216-.462.515-.573.897h3.169a1.64 1.64 0 0 0-1.626-1.22zm6.695 5.13a3.63 3.63 0 0 1-1.1-.155 2.95 2.95 0 0 1-.85-.442 2.653 2.653 0 0 1-.597-.67 2.523 2.523 0 0 1-.311-.825h1.483c.08.31.243.538.49.681.255.136.55.204.885.204.287 0 .506-.06.658-.18a.555.555 0 0 0 .227-.454.443.443 0 0 0-.156-.335c-.103-.104-.259-.183-.466-.24l-1.28-.298c-1.156-.28-1.734-.885-1.734-1.818 0-.295.056-.562.168-.8.12-.24.283-.443.49-.61a2.08 2.08 0 0 1 .73-.395c.279-.096.586-.144.92-.144.391 0 .746.056 1.065.168.319.103.59.25.813.442.231.191.414.419.55.682.143.255.24.53.287.825h-1.47a1.07 1.07 0 0 0-.192-.407 1.062 1.062 0 0 0-.311-.287 1.18 1.18 0 0 0-.37-.155 1.275 1.275 0 0 0-.383-.06c-.256 0-.447.056-.575.167a.521.521 0 0 0-.19.407c0 .319.246.538.74.658l1.184.287c1.133.27 1.699.869 1.699 1.793a1.81 1.81 0 0 1-.646 1.4 2.368 2.368 0 0 1-.754.418 3.25 3.25 0 0 1-1.004.144zM41.209 32c-.566 0-.993-.148-1.28-.442-.279-.295-.418-.666-.418-1.113V27.17h-1.208v-1.351h1.208v-1.794h1.554v1.794h1.364v1.35h-1.364v3.002c0 .16.052.28.156.36.103.079.247.119.43.119h.777V32h-1.22zm1.795-1.734c0-.558.179-.992.538-1.303.358-.311.869-.49 1.53-.539l1.818-.131v-.24c0-.302-.1-.541-.299-.717-.191-.175-.47-.263-.837-.263-.55 0-1.096.184-1.638.55l-.658-1.112a4.424 4.424 0 0 1 1.148-.61 4.067 4.067 0 0 1 1.34-.215c.366 0 .7.052 1.004.155.303.104.562.252.777.443.215.191.383.422.502.694.12.263.18.558.18.884v2.428c0 .24.115.359.347.359h.322V32h-.729c-.303 0-.562-.064-.777-.191a1.234 1.234 0 0 1-.49-.539 2.24 2.24 0 0 1-.826.658 2.617 2.617 0 0 1-1.112.228c-.31 0-.598-.048-.86-.144a2.154 2.154 0 0 1-.67-.395 1.861 1.861 0 0 1-.455-.598 1.82 1.82 0 0 1-.155-.753zm1.494-.012c0 .215.092.387.276.514.183.128.422.192.717.192.191 0 .37-.028.538-.084a1.75 1.75 0 0 0 .454-.24c.128-.103.228-.223.3-.358a.93.93 0 0 0 .107-.442v-.395l-1.602.143c-.526.048-.79.271-.79.67zm5.3-4.436h1.566v3.623c0 .383.116.701.347.957.24.247.55.37.933.37s.693-.12.933-.358c.239-.248.358-.57.358-.97v-3.622h1.567V32h-1.567v-.55c-.215.223-.47.395-.765.514a2.4 2.4 0 0 1-.933.18c-.358 0-.69-.06-.992-.18a2.438 2.438 0 0 1-.766-.514 2.312 2.312 0 0 1-.502-.753 2.49 2.49 0 0 1-.18-.945v-3.934zm9.786 1.375c-.374 0-.69.127-.945.382-.247.256-.37.622-.37 1.1V32h-1.567v-6.182h1.555v.67c.16-.232.359-.411.598-.539a1.88 1.88 0 0 1 .873-.191h.418v1.435h-.562zm.688 3.073c0-.558.18-.992.538-1.303.359-.311.87-.49 1.53-.539l1.819-.131v-.24c0-.302-.1-.541-.3-.717-.19-.175-.47-.263-.837-.263-.55 0-1.096.184-1.638.55l-.657-1.112a4.424 4.424 0 0 1 1.148-.61 4.067 4.067 0 0 1 1.339-.215 3.1 3.1 0 0 1 1.004.155c.303.104.562.252.778.443.215.191.382.422.502.694.12.263.18.558.18.884v2.428c0 .24.115.359.346.359h.323V32h-.73c-.303 0-.562-.064-.777-.191a1.234 1.234 0 0 1-.49-.539 2.24 2.24 0 0 1-.825.658 2.617 2.617 0 0 1-1.112.228c-.311 0-.598-.048-.861-.144a2.153 2.153 0 0 1-.67-.395 1.861 1.861 0 0 1-.454-.598 1.82 1.82 0 0 1-.156-.753zm1.495-.012c0 .215.092.387.275.514.183.128.422.192.717.192.192 0 .371-.028.539-.084a1.75 1.75 0 0 0 .454-.24c.127-.103.227-.223.299-.358a.93.93 0 0 0 .108-.442v-.395l-1.603.143c-.526.048-.79.271-.79.67zM72.887 32h-1.566v-3.623c0-.407-.12-.73-.36-.969-.23-.24-.537-.359-.92-.359s-.694.12-.933.359c-.239.231-.358.554-.358.969V32h-1.567v-6.182h1.567v.526c.215-.224.466-.395.753-.515.295-.12.61-.179.945-.179.358 0 .685.064.98.192.303.12.562.29.778.514.215.215.382.47.502.765.12.295.18.61.18.945V32zm3.571 0c-.566 0-.992-.148-1.28-.442-.278-.295-.418-.666-.418-1.113V27.17h-1.208v-1.351h1.208v-1.794h1.555v1.794h1.363v1.35h-1.363v3.002c0 .16.051.28.155.36.104.079.247.119.43.119h.778V32h-1.22zm4.51.144a3.63 3.63 0 0 1-1.1-.156 2.952 2.952 0 0 1-.848-.442 2.653 2.653 0 0 1-.598-.67 2.52 2.52 0 0 1-.311-.825h1.483c.08.31.243.538.49.681.255.136.55.204.885.204.287 0 .506-.06.658-.18a.555.555 0 0 0 .227-.454.443.443 0 0 0-.156-.335c-.103-.104-.259-.183-.466-.24l-1.28-.298c-1.156-.28-1.733-.885-1.733-1.818 0-.295.055-.562.167-.8.12-.24.283-.443.49-.61a2.08 2.08 0 0 1 .73-.395c.279-.096.586-.144.92-.144.391 0 .746.056 1.065.168.319.103.59.25.813.442.231.191.415.419.55.682.144.255.24.53.287.825h-1.47a1.07 1.07 0 0 0-.192-.407 1.064 1.064 0 0 0-.311-.287 1.18 1.18 0 0 0-.37-.155 1.276 1.276 0 0 0-.383-.06c-.256 0-.447.056-.575.167a.52.52 0 0 0-.19.407c0 .319.246.538.74.658l1.184.287c1.132.27 1.698.869 1.698 1.793 0 .28-.055.539-.167.778a1.81 1.81 0 0 1-.478.621 2.369 2.369 0 0 1-.754.419 3.25 3.25 0 0 1-1.004.144z" fill="#fff"/></svg>